<svg width="64" height="64" viewBox="0 0 64 64" fill="none" xmlns="http://www.w3.org/2000/svg">
  <defs>
    <linearGradient id="grad" x1="0" y1="0" x2="1" y2="1">
      <stop offset="0" stop-color="#8B5CF6"/>
      <stop offset="1" stop-color="#EC4899"/>
    </linearGradient>
    <filter id="s" x="-20%" y="-20%" width="140%" height="140%">
      <feDropShadow dx="0" dy="2" stdDeviation="2" flood-opacity=".25"/>
    </filter>
  </defs>
  <rect x="2" y="2" width="60" height="60" rx="14" fill="url(#grad)"/>
  <!-- stylized guitar body -->
  <g filter="url(#s)" transform="translate(8 8)">
    <path d="M36 8l6-6 4 4-6 6c1 3-1 6-4 7l-7 7c-1 4-5 7-9 7-6 0-10-4-10-10 0-6 5-10 11-10 1-3 4-5 7-4l6-6 2 2z" fill="#fff" fill-opacity="0.95"/>
    <rect x="28.5" y="2" width="10" height="2" rx="1" transform="rotate(45 28.5 2)" fill="#fff"/>
    <rect x="31" y="4.5" width="10" height="2" rx="1" transform="rotate(45 31 4.5)" fill="#fff"/>
  </g>
  <!-- sound hole -->
  <circle cx="28" cy="36" r="4" fill="url(#grad)"/>
</svg>
